<svg width="309" height="364" viewBox="0 0 309 364" fill="none" xmlns="http://www.w3.org/2000/svg">
<path fill-rule="evenodd" clip-rule="evenodd" d="M46.533 28.075C63.3238 8.94528 93.6566 0.75 132.466 0.75H245.125C253.055 0.75 259.807 6.51992 261.044 14.3534L307.954 311.794C308.88 317.664 304.343 322.969 298.403 322.969H228.854L233.654 353.405C234.462 358.54 230.497 363.184 225.299 363.184H166.679C159.738 363.184 153.831 358.134 152.749 351.283L152.173 348.304L141.131 278.282L140.418 274.413C139.337 267.558 133.43 262.512 126.492 262.512H117.724C60.9314 262.512 16.4623 239.439 3.47046 172.718C-1.96035 144.839 0.845497 121.568 15.2034 105.207C19.5487 100.26 24.95 96.166 31.2521 92.8288C26.8292 64.6363 31.2817 45.4512 46.533 28.075Z" fill="white"/>
<path fill-rule="evenodd" clip-rule="evenodd" d="M31.2521 92.8374C26.8292 64.6423 31.2817 45.4554 46.533 28.0776C63.3238 8.94605 93.6566 0.75 132.466 0.75H245.125C253.055 0.75 259.807 6.52046 261.044 14.3547L307.954 311.823C308.88 317.694 304.343 322.999 298.403 322.999H228.854L211.384 212.219L211.927 215.693C210.69 207.859 203.993 202.085 196.063 202.085H163.005C98.0869 202.085 47.2566 175.71 32.404 99.4349C31.9647 97.1791 31.5881 94.9898 31.2521 92.8374Z" fill="white"/>
<path fill-rule="evenodd" clip-rule="evenodd" d="M192.618 93.214C191.873 88.4994 188.849 84.6414 184.777 82.6884C182.923 81.8023 180.856 81.3076 178.689 81.3076H90.3818C79.919 81.3076 70.1649 81.9943 61.249 83.4304C58.6978 83.8402 56.2205 84.3128 53.8097 84.8481C51.4026 85.3798 49.0619 85.9779 46.7988 86.6424C45.6654 86.971 44.5541 87.318 43.4576 87.6835C39.079 89.1345 35.0031 90.8512 31.2521 92.8374C26.8292 64.6423 31.2817 45.4554 46.533 28.0776C63.3238 8.94605 93.6566 0.75 132.466 0.75H245.125C253.055 0.75 259.807 6.52046 261.044 14.3547L307.954 311.823C308.88 317.694 304.343 322.999 298.403 322.999H228.854L192.618 93.214Z" fill="white"/>
</svg>
